<svg xmlns="http://www.w3.org/2000/svg" xmlns:xlink="http://www.w3.org/1999/xlink" fill="#000000" height="463.002px" width="463.002px" version="1.1" id="Capa_1" viewBox="0 0 463.002 463.002" xml:space="preserve">
<path d="M381.072,2.478c-2.773-3.076-7.516-3.322-10.592-0.55c-20.588,18.559-53.509,53.81-93.432,116.36  c-16.793,26.311-29.34,48.912-35.331,60.051c-3.091-1.498-6.557-2.34-10.216-2.34s-7.125,0.842-10.216,2.34  c-5.991-11.139-18.538-33.74-35.331-60.051C146.032,55.738,113.11,20.487,92.522,1.928c-3.077-2.772-7.819-2.526-10.592,0.55  s-2.527,7.819,0.549,10.593c62.843,56.647,117.832,157.662,127.758,176.435c-1.432,3.035-2.237,6.421-2.237,9.993v15.325  c-1.404,2.13-2.644,4.382-3.7,6.69l-24.357-12.179l-18.453-18.453c-4.438-4.438-10.34-6.883-16.617-6.883  c-4.142,0-7.5,3.357-7.5,7.5s3.358,7.5,7.5,7.5c2.271,0,4.405,0.884,6.011,2.49l19.313,19.313c0.57,0.569,1.228,1.044,1.949,1.404  l28.028,14.014c-0.112,1.122-0.174,2.219-0.174,3.278c0,3.149,0.44,5.979,1.302,8.5h-17.802c-1.359,0-2.693,0.369-3.859,1.068  l-34.299,20.58c-2.565,1.538-5.5,2.352-8.49,2.352h-17.353c-4.142,0-7.5,3.357-7.5,7.5s3.358,7.5,7.5,7.5h17.353  c5.707,0,11.311-1.552,16.207-4.488L185.578,263h18.329c-7.032,13.548-10.362,31.592-11.425,50.934l-13.883,4.628  c-6.339,2.113-10.599,8.022-10.599,14.704v67.743c0,3.5-0.561,6.958-1.668,10.277l-13.947,41.842  c-1.31,3.93,0.814,8.178,4.744,9.487c0.787,0.262,1.586,0.387,2.373,0.387c3.14,0,6.066-1.987,7.114-5.13l13.947-41.842  c1.617-4.853,2.438-9.906,2.438-15.021v-67.743c0-0.215,0.137-0.405,0.342-0.474l8.743-2.915c0.079,26.79,3.588,54.355,6.966,74.757  c2.53,15.277,15.834,26.365,31.633,26.365h1.632c15.8,0,29.103-11.089,31.633-26.365c3.378-20.402,6.887-47.967,6.966-74.757  l8.743,2.915c0.205,0.068,0.342,0.259,0.342,0.474v67.743c0,5.113,0.82,10.167,2.438,15.021l13.947,41.842  c1.048,3.143,3.974,5.13,7.114,5.13c0.786,0,1.586-0.125,2.373-0.387c3.93-1.31,6.053-5.558,4.744-9.487l-13.947-41.841  c-1.107-3.321-1.668-6.779-1.668-10.278v-67.743c0-6.682-4.259-12.591-10.599-14.704l-13.883-4.628  c-1.063-19.342-4.393-37.386-11.425-50.934h18.329l32.52,19.512c4.895,2.937,10.499,4.488,16.206,4.488h17.353  c4.142,0,7.5-3.357,7.5-7.5s-3.358-7.5-7.5-7.5h-17.353c-2.989,0-5.925-0.813-8.489-2.352l-34.3-20.58  c-1.166-0.699-2.5-1.068-3.859-1.068h-17.802c0.862-2.521,1.302-5.351,1.302-8.5c0-1.059-0.062-2.156-0.174-3.278l28.028-14.014  c0.721-0.36,1.379-0.835,1.949-1.404l19.313-19.313c1.605-1.606,3.74-2.49,6.011-2.49c4.142,0,7.5-3.357,7.5-7.5s-3.358-7.5-7.5-7.5  c-6.277,0-12.179,2.444-16.617,6.883l-18.453,18.453l-24.357,12.179c-1.055-2.308-2.295-4.56-3.7-6.69V199.5  c0-3.572-0.805-6.959-2.237-9.993c9.921-18.771,64.877-119.754,127.758-176.435C383.599,10.298,383.845,5.554,381.072,2.478z   M231.501,248c-16.5,0-16.5-4.713-16.5-8.5c0-10.12,8.534-24.5,16.5-24.5s16.5,14.38,16.5,24.5  C248.001,243.287,248.001,248,231.501,248z M240.001,199.5v2.17c-2.657-1.068-5.498-1.67-8.5-1.67s-5.843,0.601-8.5,1.67v-2.17  c0-4.687,3.813-8.5,8.5-8.5S240.001,194.813,240.001,199.5z M249.151,402.183c-1.325,8.006-8.405,13.816-16.834,13.816h-1.632  c-8.429,0-15.508-5.811-16.834-13.816c-11.39-68.783-8.233-120.638,8.366-139.8c2.828,0.408,5.921,0.616,9.284,0.616  s6.455-0.208,9.284-0.616C257.384,281.545,260.541,333.401,249.151,402.183z"/>
</svg>