<?xml version="1.0" encoding="iso-8859-1"?>
<!-- Uploaded to: SVG Repo, www.svgrepo.com, Generator: SVG Repo Mixer Tools -->
<svg fill="#ffffff" height="800px" width="800px" version="1.1" id="Layer_1" xmlns="http://www.w3.org/2000/svg" xmlns:xlink="http://www.w3.org/1999/xlink" 
	 viewBox="0 0 512.001 512.001" xml:space="preserve">
<g>
	<g>
		<path d="M459.898,495.79l-57.448-32.829l-25.175-109.117c-0.521-2.213-1.883-4.148-3.801-5.372l-84.99-54.084l72.606-8.067
			c2.551-0.286,4.842-1.684,6.265-3.81l32.135-48.206h56.103c4.799,0,8.678-3.888,8.678-8.678c0-4.79-3.879-8.678-8.678-8.678
			h-60.746c-2.898,0-5.615,1.449-7.22,3.862l-32.464,48.709l-69.761,7.747l1.812-9.966l86.572-60.6
			c2.326-1.623,3.705-4.278,3.705-7.107v-64.512l39.181-23.509c4.105-2.465,5.441-7.793,2.968-11.906
			c-2.464-4.105-7.784-5.441-11.906-2.968l-43.39,26.034c-2.603,1.562-4.209,4.391-4.209,7.437v64.903l-68.509,47.963l7.564-41.601
			c0.083-0.383,0.136-0.777,0.166-1.177c0.005-0.069,0.007-0.137,0.01-0.206c0.008-0.153,0.023-0.303,0.023-0.458v-17.356
			c0-14.151-6.811-26.738-17.325-34.664c0.583-5.867,6.081-52.116,34.681-52.116c45.099,0,59.166-76.618,60.624-85.348
			c0.79-4.729-2.404-9.207-7.133-9.988c-4.712-0.798-9.199,2.404-9.98,7.125c-3.072,18.389-17.642,70.856-43.511,70.856
			c-37.928,0-48.499,44.278-51.196,61.818c-3.075-0.694-6.268-1.072-9.55-1.072c-3.282,0-6.475,0.378-9.55,1.072
			c-2.697-17.545-13.268-61.822-51.196-61.822c-25.938,0-40.205-51.148-43.511-70.856c-0.79-4.721-5.268-7.906-9.988-7.116
			c-4.721,0.781-7.914,5.25-7.125,9.98c1.458,8.73,15.525,85.348,60.624,85.348c28.47,0,34.081,46.241,34.679,52.121
			c-10.513,7.926-17.323,20.513-17.323,34.663v17.356c0,0.154,0.015,0.305,0.023,0.458c0.004,0.069,0.005,0.137,0.01,0.206
			c0.03,0.4,0.083,0.794,0.166,1.177l7.564,41.601l-68.509-47.963V130.17c0-3.046-1.605-5.875-4.209-7.437l-43.39-26.034
			c-4.122-2.473-9.442-1.137-11.906,2.968c-2.473,4.113-1.137,9.442,2.968,11.906l39.181,23.509v64.512
			c0,2.829,1.38,5.484,3.706,7.107l86.572,60.6l1.812,9.966l-69.761-7.747l-32.464-48.709c-1.605-2.412-4.322-3.862-7.22-3.862
			H56.407c-4.799,0-8.678,3.888-8.678,8.678c0,4.79,3.879,8.678,8.678,8.678h56.103l32.135,48.206
			c1.423,2.126,3.714,3.523,6.266,3.81l72.606,8.067l-84.99,54.084c-1.918,1.224-3.28,3.159-3.801,5.372l-25.175,109.117
			L52.103,495.79c-4.165,2.378-5.615,7.68-3.228,11.837c1.597,2.803,4.521,4.374,7.541,4.374c1.458,0,2.942-0.365,4.296-1.146
			l60.746-34.712c2.1-1.198,3.61-3.219,4.157-5.58l25.227-109.351l37.05-23.576c-6.048,10.364-9.965,22.415-9.957,36.247
			c0.451,5.285,11.733,129.44,78.067,129.44s77.616-124.156,78.102-130.169c0-13.428-3.795-25.17-9.672-35.314l36.729,23.372
			l25.227,109.351c0.547,2.36,2.057,4.382,4.157,5.58l60.746,34.712c1.354,0.781,2.838,1.146,4.296,1.146
			c3.02,0,5.944-1.571,7.541-4.374C465.512,503.47,464.063,498.168,459.898,495.79z M266.11,286.373h-10.1c-0.007,0-0.013,0-0.02,0
			h-10.1l-14.206-78.102h48.631L266.11,286.373z M282.034,182.238v8.678h-52.068v-8.678c0-14.353,11.681-26.034,26.034-26.034
			C270.354,156.204,282.034,167.885,282.034,182.238z M256,485.968c-41.889,0-58.073-81.963-60.746-112.814
			c0-40.543,48.241-63.497,60.754-68.764c12.531,5.241,60.737,28.004,60.772,68.027C314.073,404.005,297.889,485.968,256,485.968z"
			/>
	</g>
</g>
</svg>
