<?xml version="1.0" encoding="utf-8"?><!-- Uploaded to: SVG Repo, www.svgrepo.com, Generator: SVG Repo Mixer Tools -->
<svg width="800px" height="800px" viewBox="0 0 400 400" fill="none" xmlns="http://www.w3.org/2000/svg">
<path d="M254.093 142.872C338.625 238.211 195.28 286.355 124.302 315.617" stroke="#04bc3b" stroke-opacity="0.9" stroke-width="16" stroke-linecap="round" stroke-linejoin="round"/>
<path d="M254.264 123.299C257.672 112.867 260.42 100.937 254.264 93.2397C241.545 77.3378 225.181 86.5766 215.748 102.96C190.341 147.089 201.412 200.948 177.232 247.612C163.451 274.208 143.141 292.384 119.755 309.935" stroke="#04bc3b" stroke-opacity="0.9" stroke-width="16" stroke-linecap="round" stroke-linejoin="round"/>
<path d="M254.884 191.741C281.722 257.171 186.199 297.434 132.257 297.434" stroke="#04bc3b" stroke-opacity="0.9" stroke-width="16" stroke-linecap="round" stroke-linejoin="round"/>
<path d="M215.022 278.113C216.764 290.38 211.811 302.318 211.811 314.481C223.201 313.283 230.777 313.283 234.541 314.481" stroke="#04bc3b" stroke-opacity="0.9" stroke-width="16" stroke-linecap="round" stroke-linejoin="round"/>
<path d="M259.543 103.19C266.422 102.872 273.726 103.303 280 105.369" stroke="#04bc3b" stroke-opacity="0.9" stroke-width="16" stroke-linecap="round" stroke-linejoin="round"/>
</svg>