<svg xmlns="http://www.w3.org/2000/svg" xmlns:xlink="http://www.w3.org/1999/xlink" version="1.1" id="_x32_" viewBox="0 0 512 512" xml:space="preserve">
<style type="text/css">
	.st0{fill:#04bc3b;}
</style>
<g>
	<path class="st0" d="M236.078,112.594h62.792V98.515h58.454c10.165,0,18.41-8.244,18.41-18.41c0-2.665,0-9.605,0-25.974   C375.734,17.321,335.681,0,309.7,0c-25.981,0-145.066,0-145.066,0v55.213C234.998,55.213,236.078,112.594,236.078,112.594z" fill="#ffffff"/>
	<rect x="107.251" class="st0" width="44.384" height="55.213" fill="#ffffff"/>
	<path class="st0" d="M197.106,75.783c0,0-9.741-8.66-32.472-8.66c0,15.152-7.58,64.954-34.65,85.524l15.16,15.16   C145.143,167.807,190.614,129.915,197.106,75.783z" fill="#ffffff"/>
	<path class="st0" d="M237.751,125.153c-8.813,0-15.961,7.14-15.961,15.96v41.414h92.024v-41.414c0-8.82-7.148-15.96-15.96-15.96   H237.751z" fill="#ffffff"/>
	<path class="st0" d="M394.623,355.824l-79.729-155.608H220.71l-79.729,155.608c-6.66,12.991-10.134,27.382-10.134,41.982v71.228   c0,23.732,19.242,42.966,42.966,42.966h187.969c23.732,0,42.966-19.234,42.966-42.966v-71.228   C404.749,383.205,401.275,368.814,394.623,355.824z M326.804,417.48c0,9.157-7.419,16.576-16.576,16.576h-84.86   c-9.15,0-16.569-7.419-16.569-16.576v-19.674c0-2.225,0.536-4.459,1.552-6.443l30.136-58.814   c5.25-10.254,15.792-16.697,27.31-16.697c11.518,0,22.059,6.443,27.318,16.697l30.128,58.822c1.025,1.977,1.561,4.21,1.561,6.436   V417.48z" fill="#ffffff"/>
</g>
</svg>